<?xml version="1.0" encoding="UTF-8"?>
<svg xmlns="http://www.w3.org/2000/svg" xmlns:xlink="http://www.w3.org/1999/xlink" width="24pt" height="24pt" viewBox="0 0 24 24" version="1.1">
<g id="surface19865932">
<path style=" stroke:none;fill-rule:nonzero;fill:rgb(92.54902%,94.117647%,94.509804%);fill-opacity:1;" d="M 5 2 C 3.355469 2 2 3.355469 2 5 L 2 19 C 2 20.644531 3.355469 22 5 22 L 19 22 C 20.644531 22 22 20.644531 22 19 L 22 11 L 20 11 L 20 19 C 20 19.554688 19.554688 20 19 20 L 5 20 C 4.445312 20 4 19.554688 4 19 L 4 5 C 4 4.445312 4.445312 4 5 4 L 14 4 L 14 2 Z M 20.472656 3.914062 L 11.179688 13.765625 L 7.507812 10.09375 L 6.09375 11.507812 L 11.222656 16.632812 L 21.925781 5.285156 Z M 20.472656 3.914062 "/>
</g>
</svg>
